<svg width="929" height="75" viewBox="0 0 929 75" fill="none" xmlns="http://www.w3.org/2000/svg">
<g clip-path="url(#clip0_1_2)">
<path d="M102.73 0.139984V35.54C102.72 38.6769 102.34 41.8017 101.6 44.85C100.651 48.4449 99.146 51.8695 97.14 55C94.8953 58.6589 92.025 61.8948 88.66 64.56C85.2267 67.3 80.4867 69.5866 74.44 71.42C67.6879 73.3442 60.6901 74.2674 53.67 74.16H49.81C44.3538 74.2052 38.9058 73.7297 33.54 72.74C29.2699 71.9873 25.1064 70.7215 21.14 68.97C17.9253 67.4926 14.9302 65.5778 12.24 63.28C9.897 61.3207 7.83734 59.0457 6.12 56.52C4.60564 54.2168 3.36082 51.7473 2.41 49.16C1.52696 46.8479 0.880331 44.4524 0.48 42.01C0.16147 39.868 0.00103716 37.7055 0 35.54V0.139984H25.12V34.14C25.0966 36.6211 25.4748 39.0897 26.24 41.45C27.0975 43.8848 28.3883 46.1445 30.05 48.12C32.2689 50.5915 35.1327 52.3956 38.32 53.33C42.6003 54.6967 47.078 55.3422 51.57 55.24C55.9798 55.3379 60.3747 54.6922 64.57 53.33C67.7061 52.3691 70.5228 50.5754 72.72 48.14C74.4166 46.1788 75.7294 43.9162 76.59 41.47C77.3586 39.1103 77.7402 36.6417 77.72 34.16V0.160004L102.73 0.139984Z" fill="white"/>
<path d="M140.32 74.1H115.21V0.709991H140.32V74.1Z" fill="white"/>
<path d="M146.54 73.26L185.9 36.56L147.39 0.619995H180.58L202.93 21.89L225.32 0.619995H255.75L217.75 36.04L256.58 73.23H225.38L201.12 50.71L177.07 73.26H146.54Z" fill="white"/>
<path d="M288.02 49.68V74.2H262.9V0.619995H323.05C347.977 0.619995 360.443 8.59334 360.45 24.54V25.54C360.45 41.62 347.983 49.66 323.05 49.66L288.02 49.68ZM288.02 33.17H322.62C330.38 33.17 334.26 30.6 334.26 25.46V25.16C334.26 19.96 330.38 17.3567 322.62 17.35H288.02V33.17Z" fill="white"/>
<path d="M394.09 0.619995V55.88H449.81V74.17H368.97V0.619995H394.09Z" fill="white"/>
<path d="M731.68 35.44V38.33C731.685 40.3365 731.554 42.341 731.29 44.33C730.944 46.5819 730.361 48.7909 729.55 50.92C728.68 53.3362 727.511 55.6341 726.07 57.76C724.394 60.135 722.372 62.2451 720.07 64.02C717.327 66.1903 714.298 67.9736 711.07 69.32C706.94 70.9625 702.64 72.143 698.25 72.84C692.609 73.7788 686.898 74.2271 681.18 74.18H505.02C499.285 74.225 493.558 73.7767 487.9 72.84C483.493 72.1464 479.177 70.9659 475.03 69.32C471.802 67.9736 468.773 66.1903 466.03 64.02C463.706 62.2379 461.651 60.1295 459.93 57.76C458.464 55.649 457.293 53.3477 456.45 50.92C455.667 48.7856 455.101 46.5778 454.76 44.33C454.496 42.341 454.365 40.3365 454.37 38.33V35.44C454.364 33.4335 454.494 31.4289 454.76 29.44C455.106 27.2063 455.672 25.0122 456.45 22.89C457.292 20.4771 458.463 18.1922 459.93 16.1C461.648 13.773 463.684 11.6994 465.98 9.93999C468.717 7.7863 471.747 6.03521 474.98 4.73998C479.147 3.12687 483.48 1.97991 487.9 1.32C493.561 0.412437 499.287 -0.0224157 505.02 0.0199777H681.09C686.783 -0.0233824 692.47 0.411498 698.09 1.32C702.472 1.98773 706.768 3.13458 710.9 4.73998C714.132 6.03595 717.163 7.78698 719.9 9.93999C722.179 11.7023 724.198 13.7759 725.9 16.1C727.368 18.1854 728.554 20.4549 729.43 22.85C730.245 24.964 730.829 27.1601 731.17 29.4C731.475 31.3996 731.645 33.4175 731.68 35.44ZM708.08 36.12C708.088 34.3936 707.859 32.6742 707.4 31.01C706.839 29.1994 705.955 27.5053 704.79 26.01C703.433 24.2172 701.733 22.7114 699.79 21.58C697.152 20.1582 694.313 19.1466 691.37 18.58C687.754 17.8042 684.068 17.4054 680.37 17.39H507.05C487.637 17.39 477.93 23.65 477.93 36.17V37.32C477.92 39.5598 478.33 41.7816 479.14 43.87C480.108 46.1676 481.503 48.2612 483.25 50.04C485.19 52.0933 488.19 53.73 492.25 54.95C497.07 56.2679 502.054 56.8842 507.05 56.78H680.32C684.822 56.7816 689.304 56.1865 693.65 55.01C697.65 53.8167 700.65 52.21 702.65 50.19C704.451 48.4582 705.883 46.3798 706.86 44.08C707.669 41.9914 708.079 39.7697 708.07 37.53L708.08 36.12Z" fill="#B8FB3C"/>
<path d="M831.66 54.23V74.16H808.8V61.23C808.8 56.75 807.66 53.5067 805.38 51.5C803.1 49.4933 799.193 48.4933 793.66 48.5H763.97V74.17H741.21V1.79999H799.81C820.85 1.79999 831.367 8.05667 831.36 20.57V21.74C831.36 29.3867 826.867 34.67 817.88 37.59C821.699 38.5775 825.164 40.6184 827.88 43.48C830.484 46.4392 831.839 50.2925 831.66 54.23ZM807.66 25.23C807.689 24.2718 807.501 23.3195 807.112 22.4436C806.722 21.5677 806.141 20.7906 805.41 20.17C803.91 18.8766 801.6 18.23 798.48 18.23H763.97V32.43H798.45C801.57 32.43 803.88 31.78 805.38 30.48C806.119 29.8465 806.705 29.0543 807.094 28.1625C807.484 27.2707 807.667 26.3024 807.63 25.33L807.66 25.23Z" fill="white"/>
<path d="M927.56 0.369995V17.12H867.71V28.02H926.16V44.87H867.71V56.96H928.64V74.1H842.86V0.369995H927.56Z" fill="white"/>
</g>
<defs>
<clipPath id="clip0_1_2">
<rect width="928.64" height="74.2" fill="white"/>
</clipPath>
</defs>
</svg>
